<mxfile host="app.diagrams.net" modified="2023-12-30T20:28:36.406Z" agent="Mozilla/5.0 (Windows NT 10.0; Win64; x64) AppleWebKit/537.36 (KHTML, like Gecko) Chrome/120.0.0.0 Safari/537.36" etag="JTDKxxUsF1KkHgjkMxmD" version="22.1.16" type="github">
  <diagram id="C5RBs43oDa-KdzZeNtuy" name="Page-1">
    <mxGraphModel dx="1560" dy="903" grid="1" gridSize="10" guides="1" tooltips="1" connect="1" arrows="1" fold="1" page="1" pageScale="1" pageWidth="827" pageHeight="1169" math="0" shadow="0">
      <root>
        <mxCell id="WIyWlLk6GJQsqaUBKTNV-0" />
        <mxCell id="WIyWlLk6GJQsqaUBKTNV-1" parent="WIyWlLk6GJQsqaUBKTNV-0" />
        <mxCell id="zkfFHV4jXpPFQw0GAbJ--0" value="AddHotel" style="swimlane;fontStyle=2;align=center;verticalAlign=top;childLayout=stackLayout;horizontal=1;startSize=26;horizontalStack=0;resizeParent=1;resizeLast=0;collapsible=1;marginBottom=0;rounded=0;shadow=0;strokeWidth=1;" parent="WIyWlLk6GJQsqaUBKTNV-1" vertex="1" collapsed="1">
          <mxGeometry x="530" y="20" width="160" height="26" as="geometry">
            <mxRectangle x="30" y="80" width="240" height="230" as="alternateBounds" />
          </mxGeometry>
        </mxCell>
        <mxCell id="zkfFHV4jXpPFQw0GAbJ--2" value="-JPanel headerpanel&#xa;  -JTextField t1, t2, t3, t4, t5 &#xa;  -JLabel l1, l2, l3, l4, l5, l6, l7, filename&#xa;  -JButton b1, b2, b3&#xa;  -File file&#xa;  -HotelPanel hp&#xa;  -HotelDetails hd&#xa;  -String name&#xa;  -byte[] photo" style="text;align=left;verticalAlign=top;spacingLeft=4;spacingRight=4;overflow=hidden;rotatable=0;points=[[0,0.5],[1,0.5]];portConstraint=eastwest;rounded=0;shadow=0;html=0;" parent="zkfFHV4jXpPFQw0GAbJ--0" vertex="1">
          <mxGeometry y="26" width="240" height="134" as="geometry" />
        </mxCell>
        <mxCell id="1v4Eg5p9bf7H3qSQsxVO-2" value="" style="endArrow=none;html=1;rounded=0;" edge="1" parent="zkfFHV4jXpPFQw0GAbJ--0" target="zkfFHV4jXpPFQw0GAbJ--2">
          <mxGeometry width="50" height="50" relative="1" as="geometry">
            <mxPoint y="160" as="sourcePoint" />
            <mxPoint x="160" y="160" as="targetPoint" />
          </mxGeometry>
        </mxCell>
        <mxCell id="1v4Eg5p9bf7H3qSQsxVO-5" value="+AddHotel()&#xa;  +AddHotel(HotelPanel hp)  &#xa;  +AddHotel(HotelDetails hd, String name) &#xa;  +actionPerformed(ActionEvent e)" style="text;align=left;verticalAlign=top;spacingLeft=4;spacingRight=4;overflow=hidden;rotatable=0;points=[[0,0.5],[1,0.5]];portConstraint=eastwest;rounded=0;shadow=0;html=0;" vertex="1" parent="zkfFHV4jXpPFQw0GAbJ--0">
          <mxGeometry y="160" width="240" height="70" as="geometry" />
        </mxCell>
        <mxCell id="1v4Eg5p9bf7H3qSQsxVO-6" value="" style="endArrow=none;html=1;rounded=0;exitX=0.004;exitY=-0.007;exitDx=0;exitDy=0;exitPerimeter=0;entryX=0.998;entryY=1.012;entryDx=0;entryDy=0;entryPerimeter=0;" edge="1" parent="zkfFHV4jXpPFQw0GAbJ--0" source="1v4Eg5p9bf7H3qSQsxVO-5" target="zkfFHV4jXpPFQw0GAbJ--2">
          <mxGeometry width="50" height="50" relative="1" as="geometry">
            <mxPoint x="80" y="180" as="sourcePoint" />
            <mxPoint x="130" y="130" as="targetPoint" />
          </mxGeometry>
        </mxCell>
        <mxCell id="1v4Eg5p9bf7H3qSQsxVO-7" value="AddPackage" style="swimlane;fontStyle=2;align=center;verticalAlign=top;childLayout=stackLayout;horizontal=1;startSize=26;horizontalStack=0;resizeParent=1;resizeLast=0;collapsible=1;marginBottom=0;rounded=0;shadow=0;strokeWidth=1;" vertex="1" collapsed="1" parent="WIyWlLk6GJQsqaUBKTNV-1">
          <mxGeometry x="540" y="70" width="160" height="26" as="geometry">
            <mxRectangle x="320" y="80" width="270" height="280" as="alternateBounds" />
          </mxGeometry>
        </mxCell>
        <mxCell id="1v4Eg5p9bf7H3qSQsxVO-8" value="-JPanel headerpanel&#xa;  -JTextField t1, t2, t3, t4&#xa;  -JTextArea ta1&#xa;  -JLabel l1, l2, l3, l4, l5, l6, l7, filename&#xa;  -JButton b1, b2, b3&#xa;  -File file&#xa;  -PackagePanel pp&#xa;  -PackageDetails pd&#xa;  -String place&#xa;  -byte[] photo" style="text;align=left;verticalAlign=top;spacingLeft=4;spacingRight=4;overflow=hidden;rotatable=0;points=[[0,0.5],[1,0.5]];portConstraint=eastwest;rounded=0;shadow=0;html=0;" vertex="1" parent="1v4Eg5p9bf7H3qSQsxVO-7">
          <mxGeometry y="26" width="270" height="154" as="geometry" />
        </mxCell>
        <mxCell id="1v4Eg5p9bf7H3qSQsxVO-9" value="" style="endArrow=none;html=1;rounded=0;" edge="1" parent="1v4Eg5p9bf7H3qSQsxVO-7" target="1v4Eg5p9bf7H3qSQsxVO-8">
          <mxGeometry width="50" height="50" relative="1" as="geometry">
            <mxPoint y="160" as="sourcePoint" />
            <mxPoint x="160" y="160" as="targetPoint" />
          </mxGeometry>
        </mxCell>
        <mxCell id="1v4Eg5p9bf7H3qSQsxVO-10" value="+AddPackage()&#xa;  +AddPackage(PackagePanel pp)&#xa;  +AddPackage(PackageDetails pd, String place)&#xa;  +actionPerformed(ActionEvent e)" style="text;align=left;verticalAlign=top;spacingLeft=4;spacingRight=4;overflow=hidden;rotatable=0;points=[[0,0.5],[1,0.5]];portConstraint=eastwest;rounded=0;shadow=0;html=0;" vertex="1" parent="1v4Eg5p9bf7H3qSQsxVO-7">
          <mxGeometry y="180" width="270" height="70" as="geometry" />
        </mxCell>
        <mxCell id="1v4Eg5p9bf7H3qSQsxVO-11" value="" style="endArrow=none;html=1;rounded=0;entryX=1.001;entryY=0.017;entryDx=0;entryDy=0;entryPerimeter=0;exitX=-0.001;exitY=0.003;exitDx=0;exitDy=0;exitPerimeter=0;" edge="1" parent="1v4Eg5p9bf7H3qSQsxVO-7" source="1v4Eg5p9bf7H3qSQsxVO-10" target="1v4Eg5p9bf7H3qSQsxVO-10">
          <mxGeometry width="50" height="50" relative="1" as="geometry">
            <mxPoint x="10" y="180" as="sourcePoint" />
            <mxPoint x="270" y="180" as="targetPoint" />
          </mxGeometry>
        </mxCell>
        <mxCell id="1v4Eg5p9bf7H3qSQsxVO-14" value="AdminHome" style="swimlane;fontStyle=2;align=center;verticalAlign=top;childLayout=stackLayout;horizontal=1;startSize=26;horizontalStack=0;resizeParent=1;resizeLast=0;collapsible=1;marginBottom=0;rounded=0;shadow=0;strokeWidth=1;" vertex="1" collapsed="1" parent="WIyWlLk6GJQsqaUBKTNV-1">
          <mxGeometry x="254" y="20" width="160" height="26" as="geometry">
            <mxRectangle x="254" y="20" width="260" height="360" as="alternateBounds" />
          </mxGeometry>
        </mxCell>
        <mxCell id="1v4Eg5p9bf7H3qSQsxVO-15" value="-JPanel contentPane, profilepanel&#xa;  -Color buttonbcolor, buttonfcolor&#xa;  -Font buttonfont&#xa;  -JButton b1, b2, b3, b4, b5, b6, b7, b8, btn&#xa;  -int panely, panelx, row&#xa;  -HomePanel homepanel&#xa;  -ProfilePanel yourprofile&#xa;  -PackagePanel packagepanel&#xa;  -HotelPanel hotelpanel&#xa;  -AllCustomerPanel allcustomerpanel&#xa;  -BookedPackagePanel bookedpackagepanel &#xa;  -BookedHotelPanel bookedhotelpanel&#xa;  -String username" style="text;align=left;verticalAlign=top;spacingLeft=4;spacingRight=4;overflow=hidden;rotatable=0;points=[[0,0.5],[1,0.5]];portConstraint=eastwest;rounded=0;shadow=0;html=0;" vertex="1" parent="1v4Eg5p9bf7H3qSQsxVO-14">
          <mxGeometry y="26" width="260" height="194" as="geometry" />
        </mxCell>
        <mxCell id="1v4Eg5p9bf7H3qSQsxVO-16" value="" style="endArrow=none;html=1;rounded=0;" edge="1" parent="1v4Eg5p9bf7H3qSQsxVO-14" target="1v4Eg5p9bf7H3qSQsxVO-15">
          <mxGeometry width="50" height="50" relative="1" as="geometry">
            <mxPoint y="160" as="sourcePoint" />
            <mxPoint x="160" y="160" as="targetPoint" />
          </mxGeometry>
        </mxCell>
        <mxCell id="1v4Eg5p9bf7H3qSQsxVO-18" value="" style="endArrow=none;html=1;rounded=0;entryX=1.001;entryY=0.017;entryDx=0;entryDy=0;entryPerimeter=0;exitX=-0.001;exitY=0.003;exitDx=0;exitDy=0;exitPerimeter=0;" edge="1" parent="1v4Eg5p9bf7H3qSQsxVO-14" source="1v4Eg5p9bf7H3qSQsxVO-17" target="1v4Eg5p9bf7H3qSQsxVO-17">
          <mxGeometry width="50" height="50" relative="1" as="geometry">
            <mxPoint x="10" y="180" as="sourcePoint" />
            <mxPoint x="270" y="180" as="targetPoint" />
          </mxGeometry>
        </mxCell>
        <mxCell id="1v4Eg5p9bf7H3qSQsxVO-17" value="+main(String[] args)&#xa;  +AdminHome(String username)&#xa;  +createHomepanel()&#xa;  +activeButton(JButton button)&#xa;  +createButton(String text)&#xa;  +disablePanel()  &#xa;  +actionPerformed(ActionEvent e)&#xa;  +openPanel(Object source)" style="text;align=left;verticalAlign=top;spacingLeft=4;spacingRight=4;overflow=hidden;rotatable=0;points=[[0,0.5],[1,0.5]];portConstraint=eastwest;rounded=0;shadow=0;html=0;" vertex="1" parent="1v4Eg5p9bf7H3qSQsxVO-14">
          <mxGeometry y="220" width="260" height="140" as="geometry" />
        </mxCell>
        <mxCell id="1v4Eg5p9bf7H3qSQsxVO-19" value="AdminLogin" style="swimlane;fontStyle=2;align=center;verticalAlign=top;childLayout=stackLayout;horizontal=1;startSize=26;horizontalStack=0;resizeParent=1;resizeLast=0;collapsible=1;marginBottom=0;rounded=0;shadow=0;strokeWidth=1;" vertex="1" collapsed="1" parent="WIyWlLk6GJQsqaUBKTNV-1">
          <mxGeometry x="550" y="180" width="160" height="26" as="geometry">
            <mxRectangle x="20" y="180" width="220" height="170" as="alternateBounds" />
          </mxGeometry>
        </mxCell>
        <mxCell id="1v4Eg5p9bf7H3qSQsxVO-20" value="-JPanel p1, p2&#xa;  -JTextField t1&#xa;  -JPasswordField passwordField&#xa;  -JButton b1  &#xa;  -JLabel l5&#xa;  -Home home&#xa;" style="text;align=left;verticalAlign=top;spacingLeft=4;spacingRight=4;overflow=hidden;rotatable=0;points=[[0,0.5],[1,0.5]];portConstraint=eastwest;rounded=0;shadow=0;html=0;" vertex="1" parent="1v4Eg5p9bf7H3qSQsxVO-19">
          <mxGeometry y="26" width="220" height="104" as="geometry" />
        </mxCell>
        <mxCell id="1v4Eg5p9bf7H3qSQsxVO-22" value="" style="endArrow=none;html=1;rounded=0;entryX=1.004;entryY=-0.003;entryDx=0;entryDy=0;entryPerimeter=0;exitX=-0.001;exitY=0.003;exitDx=0;exitDy=0;exitPerimeter=0;" edge="1" parent="1v4Eg5p9bf7H3qSQsxVO-19" target="1v4Eg5p9bf7H3qSQsxVO-25">
          <mxGeometry width="50" height="50" relative="1" as="geometry">
            <mxPoint x="-0.2699999999999818" y="130.09000000000003" as="sourcePoint" />
            <mxPoint x="270.26999999999987" y="130.51" as="targetPoint" />
          </mxGeometry>
        </mxCell>
        <mxCell id="1v4Eg5p9bf7H3qSQsxVO-25" value=" +AdminLogin(Home m)&#xa;  +actionPerformed(ActionEvent ae)" style="text;align=left;verticalAlign=top;spacingLeft=4;spacingRight=4;overflow=hidden;rotatable=0;points=[[0,0.5],[1,0.5]];portConstraint=eastwest;rounded=0;shadow=0;html=0;" vertex="1" parent="1v4Eg5p9bf7H3qSQsxVO-19">
          <mxGeometry y="130" width="220" height="40" as="geometry" />
        </mxCell>
        <mxCell id="1v4Eg5p9bf7H3qSQsxVO-26" value="AllCustomerPanel" style="swimlane;fontStyle=2;align=center;verticalAlign=top;childLayout=stackLayout;horizontal=1;startSize=26;horizontalStack=0;resizeParent=1;resizeLast=0;collapsible=1;marginBottom=0;rounded=0;shadow=0;strokeWidth=1;" vertex="1" collapsed="1" parent="WIyWlLk6GJQsqaUBKTNV-1">
          <mxGeometry x="30" y="20" width="160" height="26" as="geometry">
            <mxRectangle x="30" y="20" width="170" height="170" as="alternateBounds" />
          </mxGeometry>
        </mxCell>
        <mxCell id="1v4Eg5p9bf7H3qSQsxVO-27" value="-JPanel panel&#xa;  -JLabel l1&#xa;  -JTable table&#xa;  -JScrollPane tableviewscroll" style="text;align=left;verticalAlign=top;spacingLeft=4;spacingRight=4;overflow=hidden;rotatable=0;points=[[0,0.5],[1,0.5]];portConstraint=eastwest;rounded=0;shadow=0;html=0;" vertex="1" parent="1v4Eg5p9bf7H3qSQsxVO-26">
          <mxGeometry y="26" width="170" height="104" as="geometry" />
        </mxCell>
        <mxCell id="1v4Eg5p9bf7H3qSQsxVO-28" value="" style="endArrow=none;html=1;rounded=0;entryX=1.004;entryY=-0.003;entryDx=0;entryDy=0;entryPerimeter=0;exitX=-0.001;exitY=0.003;exitDx=0;exitDy=0;exitPerimeter=0;" edge="1" parent="1v4Eg5p9bf7H3qSQsxVO-26" target="1v4Eg5p9bf7H3qSQsxVO-29">
          <mxGeometry width="50" height="50" relative="1" as="geometry">
            <mxPoint x="-0.2699999999999818" y="130.09000000000003" as="sourcePoint" />
            <mxPoint x="270.26999999999987" y="130.51" as="targetPoint" />
          </mxGeometry>
        </mxCell>
        <mxCell id="1v4Eg5p9bf7H3qSQsxVO-29" value="+AllCustomerPanel()" style="text;align=left;verticalAlign=top;spacingLeft=4;spacingRight=4;overflow=hidden;rotatable=0;points=[[0,0.5],[1,0.5]];portConstraint=eastwest;rounded=0;shadow=0;html=0;" vertex="1" parent="1v4Eg5p9bf7H3qSQsxVO-26">
          <mxGeometry y="130" width="170" height="40" as="geometry" />
        </mxCell>
        <mxCell id="1v4Eg5p9bf7H3qSQsxVO-30" value=" Conn" style="swimlane;fontStyle=2;align=center;verticalAlign=top;childLayout=stackLayout;horizontal=1;startSize=26;horizontalStack=0;resizeParent=1;resizeLast=0;collapsible=1;marginBottom=0;rounded=0;shadow=0;strokeWidth=1;" vertex="1" collapsed="1" parent="WIyWlLk6GJQsqaUBKTNV-1">
          <mxGeometry x="30" y="450" width="160" height="26" as="geometry">
            <mxRectangle x="280" y="80" width="120" height="120" as="alternateBounds" />
          </mxGeometry>
        </mxCell>
        <mxCell id="1v4Eg5p9bf7H3qSQsxVO-31" value="-Connection c&#xa;  -Statement s" style="text;align=left;verticalAlign=top;spacingLeft=4;spacingRight=4;overflow=hidden;rotatable=0;points=[[0,0.5],[1,0.5]];portConstraint=eastwest;rounded=0;shadow=0;html=0;" vertex="1" parent="1v4Eg5p9bf7H3qSQsxVO-30">
          <mxGeometry y="26" width="120" height="54" as="geometry" />
        </mxCell>
        <mxCell id="1v4Eg5p9bf7H3qSQsxVO-32" value="" style="endArrow=none;html=1;rounded=0;entryX=1.004;entryY=-0.003;entryDx=0;entryDy=0;entryPerimeter=0;exitX=-0.003;exitY=-0.043;exitDx=0;exitDy=0;exitPerimeter=0;" edge="1" parent="1v4Eg5p9bf7H3qSQsxVO-30" target="1v4Eg5p9bf7H3qSQsxVO-33" source="1v4Eg5p9bf7H3qSQsxVO-33">
          <mxGeometry width="50" height="50" relative="1" as="geometry">
            <mxPoint x="-0.2699999999999818" y="130.09000000000003" as="sourcePoint" />
            <mxPoint x="270.26999999999987" y="130.51" as="targetPoint" />
          </mxGeometry>
        </mxCell>
        <mxCell id="1v4Eg5p9bf7H3qSQsxVO-33" value=" +Conn()  " style="text;align=left;verticalAlign=top;spacingLeft=4;spacingRight=4;overflow=hidden;rotatable=0;points=[[0,0.5],[1,0.5]];portConstraint=eastwest;rounded=0;shadow=0;html=0;" vertex="1" parent="1v4Eg5p9bf7H3qSQsxVO-30">
          <mxGeometry y="80" width="120" height="40" as="geometry" />
        </mxCell>
        <mxCell id="1v4Eg5p9bf7H3qSQsxVO-34" value="BookedHotelPanel " style="swimlane;fontStyle=2;align=center;verticalAlign=top;childLayout=stackLayout;horizontal=1;startSize=26;horizontalStack=0;resizeParent=1;resizeLast=0;collapsible=1;marginBottom=0;rounded=0;shadow=0;strokeWidth=1;" vertex="1" collapsed="1" parent="WIyWlLk6GJQsqaUBKTNV-1">
          <mxGeometry x="30" y="260" width="160" height="26" as="geometry">
            <mxRectangle x="280" y="80" width="190" height="170" as="alternateBounds" />
          </mxGeometry>
        </mxCell>
        <mxCell id="1v4Eg5p9bf7H3qSQsxVO-35" value=" -JPanel panel&#xa;  -JLabel l1&#xa;  -JTable table  &#xa;  -String user&#xa;  -JScrollPane tableviewscroll" style="text;align=left;verticalAlign=top;spacingLeft=4;spacingRight=4;overflow=hidden;rotatable=0;points=[[0,0.5],[1,0.5]];portConstraint=eastwest;rounded=0;shadow=0;html=0;" vertex="1" parent="1v4Eg5p9bf7H3qSQsxVO-34">
          <mxGeometry y="26" width="190" height="104" as="geometry" />
        </mxCell>
        <mxCell id="1v4Eg5p9bf7H3qSQsxVO-36" value="" style="endArrow=none;html=1;rounded=0;entryX=1.004;entryY=-0.003;entryDx=0;entryDy=0;entryPerimeter=0;exitX=-0.001;exitY=0.003;exitDx=0;exitDy=0;exitPerimeter=0;" edge="1" parent="1v4Eg5p9bf7H3qSQsxVO-34" target="1v4Eg5p9bf7H3qSQsxVO-37">
          <mxGeometry width="50" height="50" relative="1" as="geometry">
            <mxPoint x="-0.2699999999999818" y="130.09000000000003" as="sourcePoint" />
            <mxPoint x="270.26999999999987" y="130.51" as="targetPoint" />
          </mxGeometry>
        </mxCell>
        <mxCell id="1v4Eg5p9bf7H3qSQsxVO-37" value="+BookedHotelPanel()&#xa;  +BookedHotelPanel(String user)" style="text;align=left;verticalAlign=top;spacingLeft=4;spacingRight=4;overflow=hidden;rotatable=0;points=[[0,0.5],[1,0.5]];portConstraint=eastwest;rounded=0;shadow=0;html=0;" vertex="1" parent="1v4Eg5p9bf7H3qSQsxVO-34">
          <mxGeometry y="130" width="190" height="40" as="geometry" />
        </mxCell>
        <mxCell id="1v4Eg5p9bf7H3qSQsxVO-38" value="BookedPackagePanel" style="swimlane;fontStyle=2;align=center;verticalAlign=top;childLayout=stackLayout;horizontal=1;startSize=26;horizontalStack=0;resizeParent=1;resizeLast=0;collapsible=1;marginBottom=0;rounded=0;shadow=0;strokeWidth=1;" vertex="1" collapsed="1" parent="WIyWlLk6GJQsqaUBKTNV-1">
          <mxGeometry x="30" y="310" width="160" height="26" as="geometry">
            <mxRectangle x="280" y="80" width="210" height="170" as="alternateBounds" />
          </mxGeometry>
        </mxCell>
        <mxCell id="1v4Eg5p9bf7H3qSQsxVO-39" value=" -JPanel panel&#xa;  -JLabel l1&#xa;  -JTable table&#xa;  -String user&#xa;  -JScrollPane tableviewscroll" style="text;align=left;verticalAlign=top;spacingLeft=4;spacingRight=4;overflow=hidden;rotatable=0;points=[[0,0.5],[1,0.5]];portConstraint=eastwest;rounded=0;shadow=0;html=0;" vertex="1" parent="1v4Eg5p9bf7H3qSQsxVO-38">
          <mxGeometry y="26" width="210" height="104" as="geometry" />
        </mxCell>
        <mxCell id="1v4Eg5p9bf7H3qSQsxVO-40" value="" style="endArrow=none;html=1;rounded=0;entryX=1.004;entryY=-0.003;entryDx=0;entryDy=0;entryPerimeter=0;exitX=-0.001;exitY=0.003;exitDx=0;exitDy=0;exitPerimeter=0;" edge="1" parent="1v4Eg5p9bf7H3qSQsxVO-38" target="1v4Eg5p9bf7H3qSQsxVO-41">
          <mxGeometry width="50" height="50" relative="1" as="geometry">
            <mxPoint x="-0.2699999999999818" y="130.09000000000003" as="sourcePoint" />
            <mxPoint x="270.26999999999987" y="130.51" as="targetPoint" />
          </mxGeometry>
        </mxCell>
        <mxCell id="1v4Eg5p9bf7H3qSQsxVO-41" value="+BookedPackagePanel()&#xa;  +BookedPackagePanel(String user)   " style="text;align=left;verticalAlign=top;spacingLeft=4;spacingRight=4;overflow=hidden;rotatable=0;points=[[0,0.5],[1,0.5]];portConstraint=eastwest;rounded=0;shadow=0;html=0;" vertex="1" parent="1v4Eg5p9bf7H3qSQsxVO-38">
          <mxGeometry y="130" width="210" height="40" as="geometry" />
        </mxCell>
        <mxCell id="1v4Eg5p9bf7H3qSQsxVO-42" value="BookHotel" style="swimlane;fontStyle=2;align=center;verticalAlign=top;childLayout=stackLayout;horizontal=1;startSize=26;horizontalStack=0;resizeParent=1;resizeLast=0;collapsible=1;marginBottom=0;rounded=0;shadow=0;strokeWidth=1;" vertex="1" collapsed="1" parent="WIyWlLk6GJQsqaUBKTNV-1">
          <mxGeometry x="30" y="360" width="160" height="26" as="geometry">
            <mxRectangle x="280" y="80" width="300" height="170" as="alternateBounds" />
          </mxGeometry>
        </mxCell>
        <mxCell id="1v4Eg5p9bf7H3qSQsxVO-43" value=" -JPanel headerpanel&#xa;  -JTextField t1, t2, t3, t4, t5, t6, t7, t8  &#xa;  -JLabel l1, l2, l3, l4, l5, l6, l7, l8, l9, l10, l11, l12, l13&#xa;  -Choice c1, c2&#xa;  -JButton b1, b2&#xa;  -String name, user" style="text;align=left;verticalAlign=top;spacingLeft=4;spacingRight=4;overflow=hidden;rotatable=0;points=[[0,0.5],[1,0.5]];portConstraint=eastwest;rounded=0;shadow=0;html=0;" vertex="1" parent="1v4Eg5p9bf7H3qSQsxVO-42">
          <mxGeometry y="26" width="300" height="104" as="geometry" />
        </mxCell>
        <mxCell id="1v4Eg5p9bf7H3qSQsxVO-44" value="" style="endArrow=none;html=1;rounded=0;entryX=1.004;entryY=-0.003;entryDx=0;entryDy=0;entryPerimeter=0;exitX=-0.001;exitY=0.003;exitDx=0;exitDy=0;exitPerimeter=0;" edge="1" parent="1v4Eg5p9bf7H3qSQsxVO-42" target="1v4Eg5p9bf7H3qSQsxVO-45">
          <mxGeometry width="50" height="50" relative="1" as="geometry">
            <mxPoint x="-0.2699999999999818" y="130.09000000000003" as="sourcePoint" />
            <mxPoint x="270.26999999999987" y="130.51" as="targetPoint" />
          </mxGeometry>
        </mxCell>
        <mxCell id="1v4Eg5p9bf7H3qSQsxVO-45" value="  +BookHotel(String name, String user)&#xa;  +actionPerformed(ActionEvent ae)" style="text;align=left;verticalAlign=top;spacingLeft=4;spacingRight=4;overflow=hidden;rotatable=0;points=[[0,0.5],[1,0.5]];portConstraint=eastwest;rounded=0;shadow=0;html=0;" vertex="1" parent="1v4Eg5p9bf7H3qSQsxVO-42">
          <mxGeometry y="130" width="300" height="40" as="geometry" />
        </mxCell>
        <mxCell id="1v4Eg5p9bf7H3qSQsxVO-46" value=" BookPackage" style="swimlane;fontStyle=2;align=center;verticalAlign=top;childLayout=stackLayout;horizontal=1;startSize=26;horizontalStack=0;resizeParent=1;resizeLast=0;collapsible=1;marginBottom=0;rounded=0;shadow=0;strokeWidth=1;" vertex="1" collapsed="1" parent="WIyWlLk6GJQsqaUBKTNV-1">
          <mxGeometry x="30" y="410" width="160" height="26" as="geometry">
            <mxRectangle x="280" y="80" width="230" height="170" as="alternateBounds" />
          </mxGeometry>
        </mxCell>
        <mxCell id="1v4Eg5p9bf7H3qSQsxVO-47" value="-JPanel headerpanel&#xa;  -JTextField t1, t2, t3, t4, t5, t6, t7&#xa;  -JLabel l1, l2, l3, l4, l5, l6, l7, l8, l9  &#xa;  -JButton b1, b2&#xa;  -JDateChooser dateChooser&#xa;  -String place, user" style="text;align=left;verticalAlign=top;spacingLeft=4;spacingRight=4;overflow=hidden;rotatable=0;points=[[0,0.5],[1,0.5]];portConstraint=eastwest;rounded=0;shadow=0;html=0;" vertex="1" parent="1v4Eg5p9bf7H3qSQsxVO-46">
          <mxGeometry y="26" width="230" height="104" as="geometry" />
        </mxCell>
        <mxCell id="1v4Eg5p9bf7H3qSQsxVO-48" value="" style="endArrow=none;html=1;rounded=0;entryX=1.004;entryY=-0.003;entryDx=0;entryDy=0;entryPerimeter=0;exitX=-0.001;exitY=0.003;exitDx=0;exitDy=0;exitPerimeter=0;" edge="1" parent="1v4Eg5p9bf7H3qSQsxVO-46" target="1v4Eg5p9bf7H3qSQsxVO-49">
          <mxGeometry width="50" height="50" relative="1" as="geometry">
            <mxPoint x="-0.2699999999999818" y="130.09000000000003" as="sourcePoint" />
            <mxPoint x="270.26999999999987" y="130.51" as="targetPoint" />
          </mxGeometry>
        </mxCell>
        <mxCell id="1v4Eg5p9bf7H3qSQsxVO-49" value="+BookPackage(String place, String user)&#xa;  +actionPerformed(ActionEvent ae)" style="text;align=left;verticalAlign=top;spacingLeft=4;spacingRight=4;overflow=hidden;rotatable=0;points=[[0,0.5],[1,0.5]];portConstraint=eastwest;rounded=0;shadow=0;html=0;" vertex="1" parent="1v4Eg5p9bf7H3qSQsxVO-46">
          <mxGeometry y="130" width="230" height="40" as="geometry" />
        </mxCell>
        <mxCell id="1v4Eg5p9bf7H3qSQsxVO-50" value=" Splash" style="swimlane;fontStyle=2;align=center;verticalAlign=top;childLayout=stackLayout;horizontal=1;startSize=26;horizontalStack=0;resizeParent=1;resizeLast=0;collapsible=1;marginBottom=0;rounded=0;shadow=0;strokeWidth=1;" vertex="1" collapsed="1" parent="WIyWlLk6GJQsqaUBKTNV-1">
          <mxGeometry x="540" y="120" width="160" height="26" as="geometry">
            <mxRectangle x="340" y="180" width="220" height="160" as="alternateBounds" />
          </mxGeometry>
        </mxCell>
        <mxCell id="1v4Eg5p9bf7H3qSQsxVO-51" value=" -Thread thread" style="text;align=left;verticalAlign=top;spacingLeft=4;spacingRight=4;overflow=hidden;rotatable=0;points=[[0,0.5],[1,0.5]];portConstraint=eastwest;rounded=0;shadow=0;html=0;" vertex="1" parent="1v4Eg5p9bf7H3qSQsxVO-50">
          <mxGeometry y="26" width="220" height="64" as="geometry" />
        </mxCell>
        <mxCell id="1v4Eg5p9bf7H3qSQsxVO-54" value="" style="endArrow=none;html=1;rounded=0;exitX=0.002;exitY=0.747;exitDx=0;exitDy=0;exitPerimeter=0;entryX=1;entryY=0.752;entryDx=0;entryDy=0;entryPerimeter=0;" edge="1" parent="1v4Eg5p9bf7H3qSQsxVO-50">
          <mxGeometry width="50" height="50" relative="1" as="geometry">
            <mxPoint x="0.44000000000005457" y="102.26800000000003" as="sourcePoint" />
            <mxPoint x="220" y="103.48800000000006" as="targetPoint" />
          </mxGeometry>
        </mxCell>
        <mxCell id="1v4Eg5p9bf7H3qSQsxVO-63" value="&#xa;+Splash()&#xa;  +run()&#xa;  +main(String[] args)" style="text;align=left;verticalAlign=top;spacingLeft=4;spacingRight=4;overflow=hidden;rotatable=0;points=[[0,0.5],[1,0.5]];portConstraint=eastwest;rounded=0;shadow=0;html=0;" vertex="1" parent="1v4Eg5p9bf7H3qSQsxVO-50">
          <mxGeometry y="90" width="220" height="64" as="geometry" />
        </mxCell>
        <mxCell id="1v4Eg5p9bf7H3qSQsxVO-55" value="CustomerHome" style="swimlane;fontStyle=2;align=center;verticalAlign=top;childLayout=stackLayout;horizontal=1;startSize=26;horizontalStack=0;resizeParent=1;resizeLast=0;collapsible=1;marginBottom=0;rounded=0;shadow=0;strokeWidth=1;" vertex="1" collapsed="1" parent="WIyWlLk6GJQsqaUBKTNV-1">
          <mxGeometry x="30" y="490" width="160" height="26" as="geometry">
            <mxRectangle x="340" y="94" width="270" height="400" as="alternateBounds" />
          </mxGeometry>
        </mxCell>
        <mxCell id="1v4Eg5p9bf7H3qSQsxVO-56" value="-JPanel contentPane, profilepanel&#xa;  -Color buttonbcolor, buttonfcolor&#xa;  -Font buttonfont&#xa;  -JButton b1, b2, b3, b4, b5, b6, b7, btn&#xa;  -int panely, panelx, row&#xa;  -HomePanel homepanel&#xa;  -ProfilePanel yourprofile&#xa;  -PackagePanel packagepanel&#xa;  -HotelPanel hotelpanel&#xa;  -BookedPackagePanel bookedpackagepanel&#xa;  -BookedHotelPanel bookedhotelpanel&#xa;  -String user, name" style="text;align=left;verticalAlign=top;spacingLeft=4;spacingRight=4;overflow=hidden;rotatable=0;points=[[0,0.5],[1,0.5]];portConstraint=eastwest;rounded=0;shadow=0;html=0;" vertex="1" parent="1v4Eg5p9bf7H3qSQsxVO-55">
          <mxGeometry y="26" width="270" height="244" as="geometry" />
        </mxCell>
        <mxCell id="1v4Eg5p9bf7H3qSQsxVO-57" value="" style="endArrow=none;html=1;rounded=0;exitX=0.002;exitY=0.747;exitDx=0;exitDy=0;exitPerimeter=0;entryX=1;entryY=0.752;entryDx=0;entryDy=0;entryPerimeter=0;" edge="1" parent="1v4Eg5p9bf7H3qSQsxVO-55" source="1v4Eg5p9bf7H3qSQsxVO-56" target="1v4Eg5p9bf7H3qSQsxVO-56">
          <mxGeometry width="50" height="50" relative="1" as="geometry">
            <mxPoint x="90" y="216" as="sourcePoint" />
            <mxPoint x="140" y="166" as="targetPoint" />
          </mxGeometry>
        </mxCell>
        <mxCell id="1v4Eg5p9bf7H3qSQsxVO-58" value="+main(String[] args)&#xa;  +CustomerHome(String user)&#xa;  +createHomepanel()&#xa;  +activeButton(JButton button)&#xa;  +createButton(String text)&#xa;  +disablePanel()&#xa;  +actionPerformed(ActionEvent e)&#xa;  +openPanel(Object source)" style="text;align=left;verticalAlign=top;spacingLeft=4;spacingRight=4;overflow=hidden;rotatable=0;points=[[0,0.5],[1,0.5]];portConstraint=eastwest;rounded=0;shadow=0;html=0;" vertex="1" parent="1v4Eg5p9bf7H3qSQsxVO-55">
          <mxGeometry y="270" width="270" height="130" as="geometry" />
        </mxCell>
        <mxCell id="1v4Eg5p9bf7H3qSQsxVO-59" value=" Dashboard" style="swimlane;fontStyle=2;align=center;verticalAlign=top;childLayout=stackLayout;horizontal=1;startSize=26;horizontalStack=0;resizeParent=1;resizeLast=0;collapsible=1;marginBottom=0;rounded=0;shadow=0;strokeWidth=1;" vertex="1" collapsed="1" parent="WIyWlLk6GJQsqaUBKTNV-1">
          <mxGeometry x="30" y="530" width="160" height="26" as="geometry">
            <mxRectangle x="240" y="350" width="120" height="120" as="alternateBounds" />
          </mxGeometry>
        </mxCell>
        <mxCell id="1v4Eg5p9bf7H3qSQsxVO-60" value="-Dashboard()" style="text;align=left;verticalAlign=top;spacingLeft=4;spacingRight=4;overflow=hidden;rotatable=0;points=[[0,0.5],[1,0.5]];portConstraint=eastwest;rounded=0;shadow=0;html=0;" vertex="1" parent="1v4Eg5p9bf7H3qSQsxVO-59">
          <mxGeometry y="26" width="120" height="54" as="geometry" />
        </mxCell>
        <mxCell id="1v4Eg5p9bf7H3qSQsxVO-61" value="" style="endArrow=none;html=1;rounded=0;entryX=1.004;entryY=-0.003;entryDx=0;entryDy=0;entryPerimeter=0;exitX=-0.003;exitY=-0.043;exitDx=0;exitDy=0;exitPerimeter=0;" edge="1" parent="1v4Eg5p9bf7H3qSQsxVO-59" source="1v4Eg5p9bf7H3qSQsxVO-62" target="1v4Eg5p9bf7H3qSQsxVO-62">
          <mxGeometry width="50" height="50" relative="1" as="geometry">
            <mxPoint x="-0.2699999999999818" y="130.09000000000003" as="sourcePoint" />
            <mxPoint x="270.26999999999987" y="130.51" as="targetPoint" />
          </mxGeometry>
        </mxCell>
        <mxCell id="1v4Eg5p9bf7H3qSQsxVO-62" value="-main(String[] args)  -main" style="text;align=left;verticalAlign=top;spacingLeft=4;spacingRight=4;overflow=hidden;rotatable=0;points=[[0,0.5],[1,0.5]];portConstraint=eastwest;rounded=0;shadow=0;html=0;" vertex="1" parent="1v4Eg5p9bf7H3qSQsxVO-59">
          <mxGeometry y="80" width="120" height="40" as="geometry" />
        </mxCell>
        <mxCell id="1v4Eg5p9bf7H3qSQsxVO-64" value="ForgotPassword" style="swimlane;fontStyle=2;align=center;verticalAlign=top;childLayout=stackLayout;horizontal=1;startSize=26;horizontalStack=0;resizeParent=1;resizeLast=0;collapsible=1;marginBottom=0;rounded=0;shadow=0;strokeWidth=1;" vertex="1" collapsed="1" parent="WIyWlLk6GJQsqaUBKTNV-1">
          <mxGeometry x="30" y="572" width="160" height="26" as="geometry">
            <mxRectangle x="340" y="180" width="220" height="160" as="alternateBounds" />
          </mxGeometry>
        </mxCell>
        <mxCell id="1v4Eg5p9bf7H3qSQsxVO-65" value=" -JPanel p1, p2&#xa;  -JTextField t1, t2, t3, t4, t5&#xa;  -JButton b1, b2, b3&#xa;  -JLabel l6" style="text;align=left;verticalAlign=top;spacingLeft=4;spacingRight=4;overflow=hidden;rotatable=0;points=[[0,0.5],[1,0.5]];portConstraint=eastwest;rounded=0;shadow=0;html=0;" vertex="1" parent="1v4Eg5p9bf7H3qSQsxVO-64">
          <mxGeometry y="26" width="220" height="64" as="geometry" />
        </mxCell>
        <mxCell id="1v4Eg5p9bf7H3qSQsxVO-66" value="" style="endArrow=none;html=1;rounded=0;exitX=0.002;exitY=0.747;exitDx=0;exitDy=0;exitPerimeter=0;entryX=1;entryY=0.752;entryDx=0;entryDy=0;entryPerimeter=0;" edge="1" parent="1v4Eg5p9bf7H3qSQsxVO-64">
          <mxGeometry width="50" height="50" relative="1" as="geometry">
            <mxPoint x="0.44000000000005457" y="102.26800000000003" as="sourcePoint" />
            <mxPoint x="220" y="103.48800000000006" as="targetPoint" />
          </mxGeometry>
        </mxCell>
        <mxCell id="1v4Eg5p9bf7H3qSQsxVO-67" value="&#xa;+ForgotPassword()&#xa;  +actionPerformed(ActionEvent ae)" style="text;align=left;verticalAlign=top;spacingLeft=4;spacingRight=4;overflow=hidden;rotatable=0;points=[[0,0.5],[1,0.5]];portConstraint=eastwest;rounded=0;shadow=0;html=0;" vertex="1" parent="1v4Eg5p9bf7H3qSQsxVO-64">
          <mxGeometry y="90" width="220" height="64" as="geometry" />
        </mxCell>
        <mxCell id="1v4Eg5p9bf7H3qSQsxVO-68" value="Front" style="swimlane;fontStyle=2;align=center;verticalAlign=top;childLayout=stackLayout;horizontal=1;startSize=26;horizontalStack=0;resizeParent=1;resizeLast=0;collapsible=1;marginBottom=0;rounded=0;shadow=0;strokeWidth=1;" vertex="1" collapsed="1" parent="WIyWlLk6GJQsqaUBKTNV-1">
          <mxGeometry x="30" y="610" width="160" height="26" as="geometry">
            <mxRectangle x="340" y="180" width="220" height="160" as="alternateBounds" />
          </mxGeometry>
        </mxCell>
        <mxCell id="1v4Eg5p9bf7H3qSQsxVO-69" value=" -JButton b1" style="text;align=left;verticalAlign=top;spacingLeft=4;spacingRight=4;overflow=hidden;rotatable=0;points=[[0,0.5],[1,0.5]];portConstraint=eastwest;rounded=0;shadow=0;html=0;" vertex="1" parent="1v4Eg5p9bf7H3qSQsxVO-68">
          <mxGeometry y="26" width="220" height="64" as="geometry" />
        </mxCell>
        <mxCell id="1v4Eg5p9bf7H3qSQsxVO-70" value="" style="endArrow=none;html=1;rounded=0;exitX=0.002;exitY=0.747;exitDx=0;exitDy=0;exitPerimeter=0;entryX=1;entryY=0.752;entryDx=0;entryDy=0;entryPerimeter=0;" edge="1" parent="1v4Eg5p9bf7H3qSQsxVO-68">
          <mxGeometry width="50" height="50" relative="1" as="geometry">
            <mxPoint x="0.44000000000005457" y="102.26800000000003" as="sourcePoint" />
            <mxPoint x="220" y="103.48800000000006" as="targetPoint" />
          </mxGeometry>
        </mxCell>
        <mxCell id="1v4Eg5p9bf7H3qSQsxVO-71" value="&#xa;+Front()&#xa;  +actionPerformed(ActionEvent ae)&#xa;  +main(String[] args)" style="text;align=left;verticalAlign=top;spacingLeft=4;spacingRight=4;overflow=hidden;rotatable=0;points=[[0,0.5],[1,0.5]];portConstraint=eastwest;rounded=0;shadow=0;html=0;" vertex="1" parent="1v4Eg5p9bf7H3qSQsxVO-68">
          <mxGeometry y="90" width="220" height="64" as="geometry" />
        </mxCell>
        <mxCell id="1v4Eg5p9bf7H3qSQsxVO-72" value="Home" style="swimlane;fontStyle=2;align=center;verticalAlign=top;childLayout=stackLayout;horizontal=1;startSize=26;horizontalStack=0;resizeParent=1;resizeLast=0;collapsible=1;marginBottom=0;rounded=0;shadow=0;strokeWidth=1;" vertex="1" collapsed="1" parent="WIyWlLk6GJQsqaUBKTNV-1">
          <mxGeometry x="320" y="250" width="160" height="26" as="geometry">
            <mxRectangle x="320" y="250" width="270" height="400" as="alternateBounds" />
          </mxGeometry>
        </mxCell>
        <mxCell id="1v4Eg5p9bf7H3qSQsxVO-73" value="-ImageIcon i1, i2, i3, i4, i5, i6&#xa;  -Image j1, j2, j3, j4, j5, j6&#xa;  -ImageIcon i11, i12, i13, i14, i15, i16&#xa;  -JLabel l1, l2, l3, l4, l5, l6, l7, l8&#xa;  -JButton b1, b2, b3, btn&#xa;  -JPanel contentPane, button, panel1&#xa;  -Thread t1&#xa;  -Login l&#xa;  -AdminLogin a" style="text;align=left;verticalAlign=top;spacingLeft=4;spacingRight=4;overflow=hidden;rotatable=0;points=[[0,0.5],[1,0.5]];portConstraint=eastwest;rounded=0;shadow=0;html=0;" vertex="1" parent="1v4Eg5p9bf7H3qSQsxVO-72">
          <mxGeometry y="26" width="270" height="244" as="geometry" />
        </mxCell>
        <mxCell id="1v4Eg5p9bf7H3qSQsxVO-74" value="" style="endArrow=none;html=1;rounded=0;exitX=0.002;exitY=0.747;exitDx=0;exitDy=0;exitPerimeter=0;entryX=1;entryY=0.752;entryDx=0;entryDy=0;entryPerimeter=0;" edge="1" parent="1v4Eg5p9bf7H3qSQsxVO-72" source="1v4Eg5p9bf7H3qSQsxVO-73" target="1v4Eg5p9bf7H3qSQsxVO-73">
          <mxGeometry width="50" height="50" relative="1" as="geometry">
            <mxPoint x="90" y="216" as="sourcePoint" />
            <mxPoint x="140" y="166" as="targetPoint" />
          </mxGeometry>
        </mxCell>
        <mxCell id="1v4Eg5p9bf7H3qSQsxVO-75" value=" +main(String[] args)&#xa;  +Home()&#xa;  +run()&#xa;  +actionPerformed(ActionEvent ae)&#xa;  +activeButton(JButton b)&#xa;  +disable()  " style="text;align=left;verticalAlign=top;spacingLeft=4;spacingRight=4;overflow=hidden;rotatable=0;points=[[0,0.5],[1,0.5]];portConstraint=eastwest;rounded=0;shadow=0;html=0;" vertex="1" parent="1v4Eg5p9bf7H3qSQsxVO-72">
          <mxGeometry y="270" width="270" height="130" as="geometry" />
        </mxCell>
        <mxCell id="1v4Eg5p9bf7H3qSQsxVO-76" value="HomePanel" style="swimlane;fontStyle=2;align=center;verticalAlign=top;childLayout=stackLayout;horizontal=1;startSize=26;horizontalStack=0;resizeParent=1;resizeLast=0;collapsible=1;marginBottom=0;rounded=0;shadow=0;strokeWidth=1;" vertex="1" collapsed="1" parent="WIyWlLk6GJQsqaUBKTNV-1">
          <mxGeometry x="600" y="424" width="160" height="26" as="geometry">
            <mxRectangle x="320" y="300" width="270" height="270" as="alternateBounds" />
          </mxGeometry>
        </mxCell>
        <mxCell id="1v4Eg5p9bf7H3qSQsxVO-77" value=" -JPanel homeheaderpanel&#xa;  -JLabel welcomelabel, l1, l2&#xa;  -String user" style="text;align=left;verticalAlign=top;spacingLeft=4;spacingRight=4;overflow=hidden;rotatable=0;points=[[0,0.5],[1,0.5]];portConstraint=eastwest;rounded=0;shadow=0;html=0;" vertex="1" parent="1v4Eg5p9bf7H3qSQsxVO-76">
          <mxGeometry y="26" width="270" height="114" as="geometry" />
        </mxCell>
        <mxCell id="1v4Eg5p9bf7H3qSQsxVO-78" value="" style="endArrow=none;html=1;rounded=0;exitX=0.002;exitY=0.747;exitDx=0;exitDy=0;exitPerimeter=0;entryX=1;entryY=0.752;entryDx=0;entryDy=0;entryPerimeter=0;" edge="1" parent="1v4Eg5p9bf7H3qSQsxVO-76" source="1v4Eg5p9bf7H3qSQsxVO-77" target="1v4Eg5p9bf7H3qSQsxVO-77">
          <mxGeometry width="50" height="50" relative="1" as="geometry">
            <mxPoint x="90" y="216" as="sourcePoint" />
            <mxPoint x="140" y="166" as="targetPoint" />
          </mxGeometry>
        </mxCell>
        <mxCell id="1v4Eg5p9bf7H3qSQsxVO-79" value="+HomePanel()&#xa;  +HomePanel(AdminHome a)&#xa;  +HomePanel(CustomerHome c, String user)" style="text;align=left;verticalAlign=top;spacingLeft=4;spacingRight=4;overflow=hidden;rotatable=0;points=[[0,0.5],[1,0.5]];portConstraint=eastwest;rounded=0;shadow=0;html=0;" vertex="1" parent="1v4Eg5p9bf7H3qSQsxVO-76">
          <mxGeometry y="140" width="270" height="130" as="geometry" />
        </mxCell>
        <mxCell id="1v4Eg5p9bf7H3qSQsxVO-80" value="HotelDetails" style="swimlane;fontStyle=2;align=center;verticalAlign=top;childLayout=stackLayout;horizontal=1;startSize=26;horizontalStack=0;resizeParent=1;resizeLast=0;collapsible=1;marginBottom=0;rounded=0;shadow=0;strokeWidth=1;" vertex="1" collapsed="1" parent="WIyWlLk6GJQsqaUBKTNV-1">
          <mxGeometry x="320" y="340" width="160" height="26" as="geometry">
            <mxRectangle x="320" y="340" width="330" height="310" as="alternateBounds" />
          </mxGeometry>
        </mxCell>
        <mxCell id="1v4Eg5p9bf7H3qSQsxVO-81" value="-JLabel l1, l2, l3, l4, l5, l6, l7, l8, l9, l10, l11, l12&#xa;  -JButton b1, b2&#xa;  -JPanel panel, panel1&#xa;  -JTextArea ta1&#xa;  -AdminHome a&#xa;  -CustomerHome c  &#xa;  -String name, user" style="text;align=left;verticalAlign=top;spacingLeft=4;spacingRight=4;overflow=hidden;rotatable=0;points=[[0,0.5],[1,0.5]];portConstraint=eastwest;rounded=0;shadow=0;html=0;" vertex="1" parent="1v4Eg5p9bf7H3qSQsxVO-80">
          <mxGeometry y="26" width="330" height="154" as="geometry" />
        </mxCell>
        <mxCell id="1v4Eg5p9bf7H3qSQsxVO-82" value="" style="endArrow=none;html=1;rounded=0;exitX=0.002;exitY=0.747;exitDx=0;exitDy=0;exitPerimeter=0;entryX=1;entryY=0.752;entryDx=0;entryDy=0;entryPerimeter=0;" edge="1" parent="1v4Eg5p9bf7H3qSQsxVO-80" source="1v4Eg5p9bf7H3qSQsxVO-81" target="1v4Eg5p9bf7H3qSQsxVO-81">
          <mxGeometry width="50" height="50" relative="1" as="geometry">
            <mxPoint x="90" y="216" as="sourcePoint" />
            <mxPoint x="140" y="166" as="targetPoint" />
          </mxGeometry>
        </mxCell>
        <mxCell id="1v4Eg5p9bf7H3qSQsxVO-83" value="+HotelDetails(AdminHome a, String name)&#xa;  +HotelDetails(CustomerHome c, String name, String user)&#xa;  +HotelDetails() &#xa;  +display()&#xa;  +actionPerformed(ActionEvent ae)  &#xa;}" style="text;align=left;verticalAlign=top;spacingLeft=4;spacingRight=4;overflow=hidden;rotatable=0;points=[[0,0.5],[1,0.5]];portConstraint=eastwest;rounded=0;shadow=0;html=0;" vertex="1" parent="1v4Eg5p9bf7H3qSQsxVO-80">
          <mxGeometry y="180" width="330" height="130" as="geometry" />
        </mxCell>
        <mxCell id="1v4Eg5p9bf7H3qSQsxVO-85" value="HotelPanel" style="swimlane;fontStyle=2;align=center;verticalAlign=top;childLayout=stackLayout;horizontal=1;startSize=26;horizontalStack=0;resizeParent=1;resizeLast=0;collapsible=1;marginBottom=0;rounded=0;shadow=0;strokeWidth=1;" vertex="1" collapsed="1" parent="WIyWlLk6GJQsqaUBKTNV-1">
          <mxGeometry x="310" y="384" width="160" height="26" as="geometry">
            <mxRectangle x="310" y="384" width="330" height="340" as="alternateBounds" />
          </mxGeometry>
        </mxCell>
        <mxCell id="1v4Eg5p9bf7H3qSQsxVO-86" value="-JPanel panel&#xa;  -JLabel l1&#xa;  -JButton b1, b2, b3&#xa;  -JTable table&#xa;  -String name, user&#xa;  -JScrollPane tableviewscroll&#xa;  -AdminHome a&#xa;  -CustomerHome c&#xa;  -HotelDetails hd" style="text;align=left;verticalAlign=top;spacingLeft=4;spacingRight=4;overflow=hidden;rotatable=0;points=[[0,0.5],[1,0.5]];portConstraint=eastwest;rounded=0;shadow=0;html=0;" vertex="1" parent="1v4Eg5p9bf7H3qSQsxVO-85">
          <mxGeometry y="26" width="330" height="184" as="geometry" />
        </mxCell>
        <mxCell id="1v4Eg5p9bf7H3qSQsxVO-87" value="" style="endArrow=none;html=1;rounded=0;exitX=0.002;exitY=0.747;exitDx=0;exitDy=0;exitPerimeter=0;entryX=1;entryY=0.752;entryDx=0;entryDy=0;entryPerimeter=0;" edge="1" parent="1v4Eg5p9bf7H3qSQsxVO-85" source="1v4Eg5p9bf7H3qSQsxVO-86" target="1v4Eg5p9bf7H3qSQsxVO-86">
          <mxGeometry width="50" height="50" relative="1" as="geometry">
            <mxPoint x="90" y="216" as="sourcePoint" />
            <mxPoint x="140" y="166" as="targetPoint" />
          </mxGeometry>
        </mxCell>
        <mxCell id="1v4Eg5p9bf7H3qSQsxVO-88" value=" +HotelPanel(AdminHome a)&#xa;  +HotelPanel(CustomerHome c, String user)  &#xa;  +HotelPanel()&#xa;  +actionPerformed(ActionEvent ae)&#xa;  +createtablemodel()" style="text;align=left;verticalAlign=top;spacingLeft=4;spacingRight=4;overflow=hidden;rotatable=0;points=[[0,0.5],[1,0.5]];portConstraint=eastwest;rounded=0;shadow=0;html=0;" vertex="1" parent="1v4Eg5p9bf7H3qSQsxVO-85">
          <mxGeometry y="210" width="330" height="130" as="geometry" />
        </mxCell>
        <mxCell id="1v4Eg5p9bf7H3qSQsxVO-89" value="Login" style="swimlane;fontStyle=2;align=center;verticalAlign=top;childLayout=stackLayout;horizontal=1;startSize=26;horizontalStack=0;resizeParent=1;resizeLast=0;collapsible=1;marginBottom=0;rounded=0;shadow=0;strokeWidth=1;" vertex="1" collapsed="1" parent="WIyWlLk6GJQsqaUBKTNV-1">
          <mxGeometry x="300" y="440" width="160" height="26" as="geometry">
            <mxRectangle x="300" y="440" width="330" height="340" as="alternateBounds" />
          </mxGeometry>
        </mxCell>
        <mxCell id="1v4Eg5p9bf7H3qSQsxVO-90" value="-JPanel p1, p2&#xa;  -JTextField t1&#xa;  -JPasswordField passwordField&#xa;  -JButton b1, b2, b3&#xa;  -Home home&#xa;  -JLabel l5" style="text;align=left;verticalAlign=top;spacingLeft=4;spacingRight=4;overflow=hidden;rotatable=0;points=[[0,0.5],[1,0.5]];portConstraint=eastwest;rounded=0;shadow=0;html=0;" vertex="1" parent="1v4Eg5p9bf7H3qSQsxVO-89">
          <mxGeometry y="26" width="330" height="184" as="geometry" />
        </mxCell>
        <mxCell id="1v4Eg5p9bf7H3qSQsxVO-91" value="" style="endArrow=none;html=1;rounded=0;exitX=0.002;exitY=0.747;exitDx=0;exitDy=0;exitPerimeter=0;entryX=1;entryY=0.752;entryDx=0;entryDy=0;entryPerimeter=0;" edge="1" parent="1v4Eg5p9bf7H3qSQsxVO-89" source="1v4Eg5p9bf7H3qSQsxVO-90" target="1v4Eg5p9bf7H3qSQsxVO-90">
          <mxGeometry width="50" height="50" relative="1" as="geometry">
            <mxPoint x="90" y="216" as="sourcePoint" />
            <mxPoint x="140" y="166" as="targetPoint" />
          </mxGeometry>
        </mxCell>
        <mxCell id="1v4Eg5p9bf7H3qSQsxVO-92" value="+Login()&#xa;  +Login(Home h)&#xa;  +actionPerformed(ActionEvent ae)" style="text;align=left;verticalAlign=top;spacingLeft=4;spacingRight=4;overflow=hidden;rotatable=0;points=[[0,0.5],[1,0.5]];portConstraint=eastwest;rounded=0;shadow=0;html=0;" vertex="1" parent="1v4Eg5p9bf7H3qSQsxVO-89">
          <mxGeometry y="210" width="330" height="130" as="geometry" />
        </mxCell>
        <mxCell id="1v4Eg5p9bf7H3qSQsxVO-93" value="PackageDetails " style="swimlane;fontStyle=2;align=center;verticalAlign=top;childLayout=stackLayout;horizontal=1;startSize=26;horizontalStack=0;resizeParent=1;resizeLast=0;collapsible=1;marginBottom=0;rounded=0;shadow=0;strokeWidth=1;" vertex="1" collapsed="1" parent="WIyWlLk6GJQsqaUBKTNV-1">
          <mxGeometry x="300" y="504" width="160" height="26" as="geometry">
            <mxRectangle x="300" y="504" width="330" height="340" as="alternateBounds" />
          </mxGeometry>
        </mxCell>
        <mxCell id="1v4Eg5p9bf7H3qSQsxVO-94" value=" -JLabel l1, l2, l3, l4, l5, l6, l7, l8, l9, l10, l11&#xa;  -JButton b1, b2&#xa;  -JPanel panel, panel1&#xa;  -JTextArea ta1&#xa;  -AdminHome a&#xa;  -CustomerHome c&#xa;  -String place, user" style="text;align=left;verticalAlign=top;spacingLeft=4;spacingRight=4;overflow=hidden;rotatable=0;points=[[0,0.5],[1,0.5]];portConstraint=eastwest;rounded=0;shadow=0;html=0;" vertex="1" parent="1v4Eg5p9bf7H3qSQsxVO-93">
          <mxGeometry y="26" width="330" height="184" as="geometry" />
        </mxCell>
        <mxCell id="1v4Eg5p9bf7H3qSQsxVO-95" value="" style="endArrow=none;html=1;rounded=0;exitX=0.002;exitY=0.747;exitDx=0;exitDy=0;exitPerimeter=0;entryX=1;entryY=0.752;entryDx=0;entryDy=0;entryPerimeter=0;" edge="1" parent="1v4Eg5p9bf7H3qSQsxVO-93" source="1v4Eg5p9bf7H3qSQsxVO-94" target="1v4Eg5p9bf7H3qSQsxVO-94">
          <mxGeometry width="50" height="50" relative="1" as="geometry">
            <mxPoint x="90" y="216" as="sourcePoint" />
            <mxPoint x="140" y="166" as="targetPoint" />
          </mxGeometry>
        </mxCell>
        <mxCell id="1v4Eg5p9bf7H3qSQsxVO-96" value="+PackageDetails(AdminHome a, String place)&#xa;  +PackageDetails(CustomerHome c, String place, String user)&#xa;  +PackageDetails()&#xa;  +display()&#xa;  +actionPerformed(ActionEvent ae)  " style="text;align=left;verticalAlign=top;spacingLeft=4;spacingRight=4;overflow=hidden;rotatable=0;points=[[0,0.5],[1,0.5]];portConstraint=eastwest;rounded=0;shadow=0;html=0;" vertex="1" parent="1v4Eg5p9bf7H3qSQsxVO-93">
          <mxGeometry y="210" width="330" height="130" as="geometry" />
        </mxCell>
        <mxCell id="1v4Eg5p9bf7H3qSQsxVO-97" value="PackagePanel" style="swimlane;fontStyle=2;align=center;verticalAlign=top;childLayout=stackLayout;horizontal=1;startSize=26;horizontalStack=0;resizeParent=1;resizeLast=0;collapsible=1;marginBottom=0;rounded=0;shadow=0;strokeWidth=1;" vertex="1" collapsed="1" parent="WIyWlLk6GJQsqaUBKTNV-1">
          <mxGeometry x="300" y="556" width="160" height="26" as="geometry">
            <mxRectangle x="300" y="556" width="330" height="350" as="alternateBounds" />
          </mxGeometry>
        </mxCell>
        <mxCell id="1v4Eg5p9bf7H3qSQsxVO-98" value="-JPanel panel&#xa;  -JLabel l1 &#xa;  -JButton b1, b2, b3&#xa;  -JTable table&#xa;  -String place, user&#xa;  -JScrollPane tableviewscroll&#xa;  -PackageDetails pd&#xa;  -CustomerHome c&#xa;  -AdminHome a" style="text;align=left;verticalAlign=top;spacingLeft=4;spacingRight=4;overflow=hidden;rotatable=0;points=[[0,0.5],[1,0.5]];portConstraint=eastwest;rounded=0;shadow=0;html=0;" vertex="1" parent="1v4Eg5p9bf7H3qSQsxVO-97">
          <mxGeometry y="26" width="330" height="194" as="geometry" />
        </mxCell>
        <mxCell id="1v4Eg5p9bf7H3qSQsxVO-99" value="" style="endArrow=none;html=1;rounded=0;exitX=0.002;exitY=0.747;exitDx=0;exitDy=0;exitPerimeter=0;entryX=1;entryY=0.752;entryDx=0;entryDy=0;entryPerimeter=0;" edge="1" parent="1v4Eg5p9bf7H3qSQsxVO-97" source="1v4Eg5p9bf7H3qSQsxVO-98" target="1v4Eg5p9bf7H3qSQsxVO-98">
          <mxGeometry width="50" height="50" relative="1" as="geometry">
            <mxPoint x="90" y="216" as="sourcePoint" />
            <mxPoint x="140" y="166" as="targetPoint" />
          </mxGeometry>
        </mxCell>
        <mxCell id="1v4Eg5p9bf7H3qSQsxVO-100" value=" +PackagePanel(AdminHome a)&#xa;  +PackagePanel(CustomerHome c, String user)&#xa;  +PackagePanel()&#xa;  +actionPerformed(ActionEvent ae)&#xa;  +createtablemodel()" style="text;align=left;verticalAlign=top;spacingLeft=4;spacingRight=4;overflow=hidden;rotatable=0;points=[[0,0.5],[1,0.5]];portConstraint=eastwest;rounded=0;shadow=0;html=0;" vertex="1" parent="1v4Eg5p9bf7H3qSQsxVO-97">
          <mxGeometry y="220" width="330" height="130" as="geometry" />
        </mxCell>
        <mxCell id="1v4Eg5p9bf7H3qSQsxVO-101" value="ProfilePanel" style="swimlane;fontStyle=2;align=center;verticalAlign=top;childLayout=stackLayout;horizontal=1;startSize=26;horizontalStack=0;resizeParent=1;resizeLast=0;collapsible=1;marginBottom=0;rounded=0;shadow=0;strokeWidth=1;" vertex="1" collapsed="1" parent="WIyWlLk6GJQsqaUBKTNV-1">
          <mxGeometry x="590" y="340" width="160" height="26" as="geometry">
            <mxRectangle x="290" y="598" width="330" height="350" as="alternateBounds" />
          </mxGeometry>
        </mxCell>
        <mxCell id="1v4Eg5p9bf7H3qSQsxVO-102" value="-JPanel panel, panel1&#xa;  -JLabel l1, l2, l3, l4, l5, l6, l7&#xa;  -JButton b1, b2, b3&#xa;  -JTextField t1, t2, t3, t4, t5, t6&#xa;  -String username, user&#xa;  -AdminHome a&#xa;  -CustomerHome c" style="text;align=left;verticalAlign=top;spacingLeft=4;spacingRight=4;overflow=hidden;rotatable=0;points=[[0,0.5],[1,0.5]];portConstraint=eastwest;rounded=0;shadow=0;html=0;" vertex="1" parent="1v4Eg5p9bf7H3qSQsxVO-101">
          <mxGeometry y="26" width="330" height="194" as="geometry" />
        </mxCell>
        <mxCell id="1v4Eg5p9bf7H3qSQsxVO-103" value="" style="endArrow=none;html=1;rounded=0;exitX=0.002;exitY=0.747;exitDx=0;exitDy=0;exitPerimeter=0;entryX=1;entryY=0.752;entryDx=0;entryDy=0;entryPerimeter=0;" edge="1" parent="1v4Eg5p9bf7H3qSQsxVO-101" source="1v4Eg5p9bf7H3qSQsxVO-102" target="1v4Eg5p9bf7H3qSQsxVO-102">
          <mxGeometry width="50" height="50" relative="1" as="geometry">
            <mxPoint x="90" y="216" as="sourcePoint" />
            <mxPoint x="140" y="166" as="targetPoint" />
          </mxGeometry>
        </mxCell>
        <mxCell id="1v4Eg5p9bf7H3qSQsxVO-104" value="+ProfilePanel()&#xa;  +ProfilePanel(AdminHome a, String username)&#xa;  +ProfilePanel(CustomerHome c, String user)&#xa;  +actionPerformed(ActionEvent ae)" style="text;align=left;verticalAlign=top;spacingLeft=4;spacingRight=4;overflow=hidden;rotatable=0;points=[[0,0.5],[1,0.5]];portConstraint=eastwest;rounded=0;shadow=0;html=0;" vertex="1" parent="1v4Eg5p9bf7H3qSQsxVO-101">
          <mxGeometry y="220" width="330" height="130" as="geometry" />
        </mxCell>
        <mxCell id="1v4Eg5p9bf7H3qSQsxVO-105" value=" Signup" style="swimlane;fontStyle=2;align=center;verticalAlign=top;childLayout=stackLayout;horizontal=1;startSize=26;horizontalStack=0;resizeParent=1;resizeLast=0;collapsible=1;marginBottom=0;rounded=0;shadow=0;strokeWidth=1;" vertex="1" collapsed="1" parent="WIyWlLk6GJQsqaUBKTNV-1">
          <mxGeometry x="300" y="680" width="160" height="26" as="geometry">
            <mxRectangle x="300" y="680" width="330" height="350" as="alternateBounds" />
          </mxGeometry>
        </mxCell>
        <mxCell id="1v4Eg5p9bf7H3qSQsxVO-106" value="-JPanel p1, p2&#xa;  -JTextField t1, t2, t3, t4&#xa;  -JButton b1, b2&#xa;  -JComboBox c1&#xa;  -JLabel l5" style="text;align=left;verticalAlign=top;spacingLeft=4;spacingRight=4;overflow=hidden;rotatable=0;points=[[0,0.5],[1,0.5]];portConstraint=eastwest;rounded=0;shadow=0;html=0;" vertex="1" parent="1v4Eg5p9bf7H3qSQsxVO-105">
          <mxGeometry y="26" width="330" height="194" as="geometry" />
        </mxCell>
        <mxCell id="1v4Eg5p9bf7H3qSQsxVO-107" value="" style="endArrow=none;html=1;rounded=0;exitX=0.002;exitY=0.747;exitDx=0;exitDy=0;exitPerimeter=0;entryX=1;entryY=0.752;entryDx=0;entryDy=0;entryPerimeter=0;" edge="1" parent="1v4Eg5p9bf7H3qSQsxVO-105" source="1v4Eg5p9bf7H3qSQsxVO-106" target="1v4Eg5p9bf7H3qSQsxVO-106">
          <mxGeometry width="50" height="50" relative="1" as="geometry">
            <mxPoint x="90" y="216" as="sourcePoint" />
            <mxPoint x="140" y="166" as="targetPoint" />
          </mxGeometry>
        </mxCell>
        <mxCell id="1v4Eg5p9bf7H3qSQsxVO-108" value=" +Signup()&#xa;  +actionPerformed(ActionEvent ae)" style="text;align=left;verticalAlign=top;spacingLeft=4;spacingRight=4;overflow=hidden;rotatable=0;points=[[0,0.5],[1,0.5]];portConstraint=eastwest;rounded=0;shadow=0;html=0;" vertex="1" parent="1v4Eg5p9bf7H3qSQsxVO-105">
          <mxGeometry y="220" width="330" height="50" as="geometry" />
        </mxCell>
      </root>
    </mxGraphModel>
  </diagram>
</mxfile>
